ISO-10303-21;
HEADER;
/* Generated by software containing ST-Developer
 * from STEP Tools, Inc. (www.steptools.com) 
 */
/* OPTION: using custom renumber hook */

FILE_DESCRIPTION(
/* description */ ('STEP AP242 Edition 2',
'CAx-IF Rec.Pracs.---Representation and Presentation of Product Manufa
cturing Information (PMI)---4.0---2014-10-13',
'CAx-IF Rec.Pracs.---3D Tessellated Geometry---0.4---2014-09-14','2;1',
'CAx-IF Rec.Pracs.---User Defined Attributes---1.5---2016-08-15'),
/* implementation_level */ '2;1');

FILE_NAME(
/* name */ 'Case - Lid',
/* time_stamp */ '2026-09-17T11:07:47Z',
/* author */ (''),
/* organization */ (''),
/* preprocessor_version */ 'ST-DEVELOPER v20',
/* originating_system */ 'ONSHAPE BY PTC INC, 1.220',
/* authorisation */ '  ');

FILE_SCHEMA (('AP242_MANAGED_MODEL_BASED_3D_ENGINEERING_MIM_LF { 1 0 10303 442 3 1 4 }'));
ENDSEC;

DATA;
#10=SHAPE_REPRESENTATION_RELATIONSHIP('','',#843,#11);
#11=ADVANCED_BREP_SHAPE_REPRESENTATION('',(#841),#1355);
#12=ELLIPSE('',#869,0.00212132034355965,0.0015);
#13=ELLIPSE('',#876,0.00212132034355965,0.0015);
#14=CYLINDRICAL_SURFACE('',#858,0.0013);
#15=CYLINDRICAL_SURFACE('',#860,0.0013);
#16=CYLINDRICAL_SURFACE('',#865,0.0015);
#17=CYLINDRICAL_SURFACE('',#868,0.0015);
#18=CYLINDRICAL_SURFACE('',#874,0.0015);
#19=CYLINDRICAL_SURFACE('',#878,0.0015);
#20=CIRCLE('',#850,0.0015);
#21=CIRCLE('',#851,0.0015);
#22=CIRCLE('',#852,0.0013);
#23=CIRCLE('',#853,0.0013);
#24=CIRCLE('',#859,0.0013);
#25=CIRCLE('',#861,0.0013);
#26=CIRCLE('',#866,0.0015);
#27=CIRCLE('',#870,0.0015);
#28=CIRCLE('',#875,0.0015);
#29=CIRCLE('',#879,0.0015);
#30=ORIENTED_EDGE('',*,*,#254,.T.);
#31=ORIENTED_EDGE('',*,*,#255,.T.);
#32=ORIENTED_EDGE('',*,*,#256,.F.);
#33=ORIENTED_EDGE('',*,*,#257,.F.);
#34=ORIENTED_EDGE('',*,*,#258,.T.);
#35=ORIENTED_EDGE('',*,*,#259,.T.);
#36=ORIENTED_EDGE('',*,*,#254,.F.);
#37=ORIENTED_EDGE('',*,*,#260,.T.);
#38=ORIENTED_EDGE('',*,*,#261,.T.);
#39=ORIENTED_EDGE('',*,*,#262,.T.);
#40=ORIENTED_EDGE('',*,*,#258,.F.);
#41=ORIENTED_EDGE('',*,*,#263,.T.);
#42=ORIENTED_EDGE('',*,*,#256,.T.);
#43=ORIENTED_EDGE('',*,*,#264,.T.);
#44=ORIENTED_EDGE('',*,*,#261,.F.);
#45=ORIENTED_EDGE('',*,*,#265,.F.);
#46=ORIENTED_EDGE('',*,*,#266,.T.);
#47=ORIENTED_EDGE('',*,*,#267,.T.);
#48=ORIENTED_EDGE('',*,*,#268,.F.);
#49=ORIENTED_EDGE('',*,*,#269,.T.);
#50=ORIENTED_EDGE('',*,*,#270,.F.);
#51=ORIENTED_EDGE('',*,*,#271,.T.);
#52=ORIENTED_EDGE('',*,*,#272,.T.);
#53=ORIENTED_EDGE('',*,*,#273,.F.);
#54=ORIENTED_EDGE('',*,*,#274,.F.);
#55=ORIENTED_EDGE('',*,*,#275,.F.);
#56=ORIENTED_EDGE('',*,*,#276,.F.);
#57=ORIENTED_EDGE('',*,*,#277,.F.);
#58=ORIENTED_EDGE('',*,*,#278,.F.);
#59=ORIENTED_EDGE('',*,*,#279,.F.);
#60=ORIENTED_EDGE('',*,*,#280,.T.);
#61=ORIENTED_EDGE('',*,*,#281,.F.);
#62=ORIENTED_EDGE('',*,*,#282,.T.);
#63=ORIENTED_EDGE('',*,*,#283,.F.);
#64=ORIENTED_EDGE('',*,*,#284,.F.);
#65=ORIENTED_EDGE('',*,*,#285,.T.);
#66=ORIENTED_EDGE('',*,*,#286,.T.);
#67=ORIENTED_EDGE('',*,*,#287,.T.);
#68=ORIENTED_EDGE('',*,*,#288,.T.);
#69=ORIENTED_EDGE('',*,*,#289,.F.);
#70=ORIENTED_EDGE('',*,*,#290,.T.);
#71=ORIENTED_EDGE('',*,*,#291,.T.);
#72=ORIENTED_EDGE('',*,*,#282,.F.);
#73=ORIENTED_EDGE('',*,*,#292,.F.);
#74=ORIENTED_EDGE('',*,*,#270,.T.);
#75=ORIENTED_EDGE('',*,*,#293,.T.);
#76=ORIENTED_EDGE('',*,*,#294,.T.);
#77=ORIENTED_EDGE('',*,*,#295,.T.);
#78=ORIENTED_EDGE('',*,*,#284,.T.);
#79=ORIENTED_EDGE('',*,*,#296,.F.);
#80=ORIENTED_EDGE('',*,*,#297,.T.);
#81=ORIENTED_EDGE('',*,*,#298,.T.);
#82=ORIENTED_EDGE('',*,*,#299,.T.);
#83=ORIENTED_EDGE('',*,*,#300,.T.);
#84=ORIENTED_EDGE('',*,*,#286,.F.);
#85=ORIENTED_EDGE('',*,*,#301,.T.);
#86=ORIENTED_EDGE('',*,*,#302,.T.);
#87=ORIENTED_EDGE('',*,*,#303,.T.);
#88=ORIENTED_EDGE('',*,*,#266,.F.);
#89=ORIENTED_EDGE('',*,*,#304,.T.);
#90=ORIENTED_EDGE('',*,*,#305,.T.);
#91=ORIENTED_EDGE('',*,*,#288,.F.);
#92=ORIENTED_EDGE('',*,*,#306,.F.);
#93=ORIENTED_EDGE('',*,*,#289,.T.);
#94=ORIENTED_EDGE('',*,*,#268,.T.);
#95=ORIENTED_EDGE('',*,*,#307,.T.);
#96=ORIENTED_EDGE('',*,*,#308,.T.);
#97=ORIENTED_EDGE('',*,*,#309,.T.);
#98=ORIENTED_EDGE('',*,*,#310,.T.);
#99=ORIENTED_EDGE('',*,*,#311,.T.);
#100=ORIENTED_EDGE('',*,*,#312,.T.);
#101=ORIENTED_EDGE('',*,*,#313,.T.);
#102=ORIENTED_EDGE('',*,*,#306,.T.);
#103=ORIENTED_EDGE('',*,*,#305,.F.);
#104=ORIENTED_EDGE('',*,*,#314,.F.);
#105=ORIENTED_EDGE('',*,*,#315,.T.);
#106=ORIENTED_EDGE('',*,*,#316,.T.);
#107=ORIENTED_EDGE('',*,*,#272,.F.);
#108=ORIENTED_EDGE('',*,*,#281,.T.);
#109=ORIENTED_EDGE('',*,*,#317,.F.);
#110=ORIENTED_EDGE('',*,*,#318,.F.);
#111=ORIENTED_EDGE('',*,*,#292,.T.);
#112=ORIENTED_EDGE('',*,*,#319,.F.);
#113=ORIENTED_EDGE('',*,*,#320,.F.);
#114=ORIENTED_EDGE('',*,*,#321,.T.);
#115=ORIENTED_EDGE('',*,*,#317,.T.);
#116=ORIENTED_EDGE('',*,*,#280,.F.);
#117=ORIENTED_EDGE('',*,*,#320,.T.);
#118=ORIENTED_EDGE('',*,*,#322,.T.);
#119=ORIENTED_EDGE('',*,*,#323,.F.);
#120=ORIENTED_EDGE('',*,*,#324,.F.);
#121=ORIENTED_EDGE('',*,*,#325,.T.);
#122=ORIENTED_EDGE('',*,*,#278,.T.);
#123=ORIENTED_EDGE('',*,*,#326,.F.);
#124=ORIENTED_EDGE('',*,*,#277,.T.);
#125=ORIENTED_EDGE('',*,*,#327,.F.);
#126=ORIENTED_EDGE('',*,*,#328,.F.);
#127=ORIENTED_EDGE('',*,*,#326,.T.);
#128=ORIENTED_EDGE('',*,*,#276,.T.);
#129=ORIENTED_EDGE('',*,*,#329,.T.);
#130=ORIENTED_EDGE('',*,*,#330,.F.);
#131=ORIENTED_EDGE('',*,*,#327,.T.);
#132=ORIENTED_EDGE('',*,*,#331,.F.);
#133=ORIENTED_EDGE('',*,*,#332,.T.);
#134=ORIENTED_EDGE('',*,*,#333,.F.);
#135=ORIENTED_EDGE('',*,*,#333,.T.);
#136=ORIENTED_EDGE('',*,*,#334,.T.);
#137=ORIENTED_EDGE('',*,*,#274,.T.);
#138=ORIENTED_EDGE('',*,*,#335,.F.);
#139=ORIENTED_EDGE('',*,*,#336,.F.);
#140=ORIENTED_EDGE('',*,*,#273,.T.);
#141=ORIENTED_EDGE('',*,*,#316,.F.);
#142=ORIENTED_EDGE('',*,*,#337,.F.);
#143=ORIENTED_EDGE('',*,*,#335,.T.);
#144=ORIENTED_EDGE('',*,*,#338,.T.);
#145=ORIENTED_EDGE('',*,*,#339,.T.);
#146=ORIENTED_EDGE('',*,*,#340,.T.);
#147=ORIENTED_EDGE('',*,*,#341,.T.);
#148=ORIENTED_EDGE('',*,*,#342,.F.);
#149=ORIENTED_EDGE('',*,*,#331,.T.);
#150=ORIENTED_EDGE('',*,*,#336,.T.);
#151=ORIENTED_EDGE('',*,*,#337,.T.);
#152=ORIENTED_EDGE('',*,*,#315,.F.);
#153=ORIENTED_EDGE('',*,*,#343,.F.);
#154=ORIENTED_EDGE('',*,*,#290,.F.);
#155=ORIENTED_EDGE('',*,*,#318,.T.);
#156=ORIENTED_EDGE('',*,*,#321,.F.);
#157=ORIENTED_EDGE('',*,*,#323,.T.);
#158=ORIENTED_EDGE('',*,*,#344,.F.);
#159=ORIENTED_EDGE('',*,*,#324,.T.);
#160=ORIENTED_EDGE('',*,*,#328,.T.);
#161=ORIENTED_EDGE('',*,*,#330,.T.);
#162=ORIENTED_EDGE('',*,*,#345,.T.);
#163=ORIENTED_EDGE('',*,*,#343,.T.);
#164=ORIENTED_EDGE('',*,*,#346,.F.);
#165=ORIENTED_EDGE('',*,*,#347,.F.);
#166=ORIENTED_EDGE('',*,*,#283,.T.);
#167=ORIENTED_EDGE('',*,*,#291,.F.);
#168=ORIENTED_EDGE('',*,*,#345,.F.);
#169=ORIENTED_EDGE('',*,*,#348,.F.);
#170=ORIENTED_EDGE('',*,*,#296,.T.);
#171=ORIENTED_EDGE('',*,*,#271,.F.);
#172=ORIENTED_EDGE('',*,*,#298,.F.);
#173=ORIENTED_EDGE('',*,*,#349,.T.);
#174=ORIENTED_EDGE('',*,*,#346,.T.);
#175=ORIENTED_EDGE('',*,*,#314,.T.);
#176=ORIENTED_EDGE('',*,*,#297,.F.);
#177=ORIENTED_EDGE('',*,*,#348,.T.);
#178=ORIENTED_EDGE('',*,*,#347,.T.);
#179=ORIENTED_EDGE('',*,*,#349,.F.);
#180=ORIENTED_EDGE('',*,*,#319,.T.);
#181=ORIENTED_EDGE('',*,*,#279,.T.);
#182=ORIENTED_EDGE('',*,*,#325,.F.);
#183=ORIENTED_EDGE('',*,*,#344,.T.);
#184=ORIENTED_EDGE('',*,*,#322,.F.);
#185=ORIENTED_EDGE('',*,*,#332,.F.);
#186=ORIENTED_EDGE('',*,*,#342,.T.);
#187=ORIENTED_EDGE('',*,*,#329,.F.);
#188=ORIENTED_EDGE('',*,*,#275,.T.);
#189=ORIENTED_EDGE('',*,*,#334,.F.);
#190=ORIENTED_EDGE('',*,*,#285,.F.);
#191=ORIENTED_EDGE('',*,*,#295,.F.);
#192=ORIENTED_EDGE('',*,*,#350,.F.);
#193=ORIENTED_EDGE('',*,*,#301,.F.);
#194=ORIENTED_EDGE('',*,*,#269,.F.);
#195=ORIENTED_EDGE('',*,*,#309,.F.);
#196=ORIENTED_EDGE('',*,*,#351,.F.);
#197=ORIENTED_EDGE('',*,*,#293,.F.);
#198=ORIENTED_EDGE('',*,*,#352,.F.);
#199=ORIENTED_EDGE('',*,*,#294,.F.);
#200=ORIENTED_EDGE('',*,*,#353,.F.);
#201=ORIENTED_EDGE('',*,*,#310,.F.);
#202=ORIENTED_EDGE('',*,*,#350,.T.);
#203=ORIENTED_EDGE('',*,*,#352,.T.);
#204=ORIENTED_EDGE('',*,*,#354,.F.);
#205=ORIENTED_EDGE('',*,*,#353,.T.);
#206=ORIENTED_EDGE('',*,*,#351,.T.);
#207=ORIENTED_EDGE('',*,*,#355,.F.);
#208=ORIENTED_EDGE('',*,*,#354,.T.);
#209=ORIENTED_EDGE('',*,*,#313,.F.);
#210=ORIENTED_EDGE('',*,*,#356,.F.);
#211=ORIENTED_EDGE('',*,*,#299,.F.);
#212=ORIENTED_EDGE('',*,*,#287,.F.);
#213=ORIENTED_EDGE('',*,*,#300,.F.);
#214=ORIENTED_EDGE('',*,*,#357,.F.);
#215=ORIENTED_EDGE('',*,*,#304,.F.);
#216=ORIENTED_EDGE('',*,*,#267,.F.);
#217=ORIENTED_EDGE('',*,*,#303,.F.);
#218=ORIENTED_EDGE('',*,*,#358,.F.);
#219=ORIENTED_EDGE('',*,*,#307,.F.);
#220=ORIENTED_EDGE('',*,*,#355,.T.);
#221=ORIENTED_EDGE('',*,*,#308,.F.);
#222=ORIENTED_EDGE('',*,*,#359,.F.);
#223=ORIENTED_EDGE('',*,*,#311,.F.);
#224=ORIENTED_EDGE('',*,*,#357,.T.);
#225=ORIENTED_EDGE('',*,*,#356,.T.);
#226=ORIENTED_EDGE('',*,*,#360,.F.);
#227=ORIENTED_EDGE('',*,*,#359,.T.);
#228=ORIENTED_EDGE('',*,*,#358,.T.);
#229=ORIENTED_EDGE('',*,*,#361,.F.);
#230=ORIENTED_EDGE('',*,*,#360,.T.);
#231=ORIENTED_EDGE('',*,*,#312,.F.);
#232=ORIENTED_EDGE('',*,*,#361,.T.);
#233=ORIENTED_EDGE('',*,*,#302,.F.);
#234=ORIENTED_EDGE('',*,*,#260,.F.);
#235=ORIENTED_EDGE('',*,*,#257,.T.);
#236=ORIENTED_EDGE('',*,*,#265,.T.);
#237=ORIENTED_EDGE('',*,*,#263,.F.);
#238=ORIENTED_EDGE('',*,*,#362,.F.);
#239=ORIENTED_EDGE('',*,*,#255,.F.);
#240=ORIENTED_EDGE('',*,*,#363,.F.);
#241=ORIENTED_EDGE('',*,*,#341,.F.);
#242=ORIENTED_EDGE('',*,*,#363,.T.);
#243=ORIENTED_EDGE('',*,*,#259,.F.);
#244=ORIENTED_EDGE('',*,*,#364,.F.);
#245=ORIENTED_EDGE('',*,*,#338,.F.);
#246=ORIENTED_EDGE('',*,*,#362,.T.);
#247=ORIENTED_EDGE('',*,*,#340,.F.);
#248=ORIENTED_EDGE('',*,*,#365,.F.);
#249=ORIENTED_EDGE('',*,*,#264,.F.);
#250=ORIENTED_EDGE('',*,*,#364,.T.);
#251=ORIENTED_EDGE('',*,*,#262,.F.);
#252=ORIENTED_EDGE('',*,*,#365,.T.);
#253=ORIENTED_EDGE('',*,*,#339,.F.);
#254=EDGE_CURVE('',#366,#367,#436,.T.);
#255=EDGE_CURVE('',#367,#368,#437,.T.);
#256=EDGE_CURVE('',#369,#368,#438,.T.);
#257=EDGE_CURVE('',#366,#369,#439,.T.);
#258=EDGE_CURVE('',#370,#371,#440,.T.);
#259=EDGE_CURVE('',#371,#367,#441,.T.);
#260=EDGE_CURVE('',#366,#370,#442,.T.);
#261=EDGE_CURVE('',#372,#373,#443,.T.);
#262=EDGE_CURVE('',#373,#371,#444,.T.);
#263=EDGE_CURVE('',#370,#372,#445,.T.);
#264=EDGE_CURVE('',#368,#373,#446,.T.);
#265=EDGE_CURVE('',#369,#372,#447,.T.);
#266=EDGE_CURVE('',#374,#375,#448,.T.);
#267=EDGE_CURVE('',#375,#376,#449,.T.);
#268=EDGE_CURVE('',#377,#376,#450,.T.);
#269=EDGE_CURVE('',#377,#378,#451,.F.);
#270=EDGE_CURVE('',#379,#378,#452,.T.);
#271=EDGE_CURVE('',#379,#380,#453,.T.);
#272=EDGE_CURVE('',#380,#381,#454,.T.);
#273=EDGE_CURVE('',#382,#381,#20,.T.);
#274=EDGE_CURVE('',#383,#382,#455,.T.);
#275=EDGE_CURVE('',#384,#383,#456,.T.);
#276=EDGE_CURVE('',#385,#384,#457,.T.);
#277=EDGE_CURVE('',#386,#385,#458,.T.);
#278=EDGE_CURVE('',#387,#386,#459,.T.);
#279=EDGE_CURVE('',#388,#387,#460,.T.);
#280=EDGE_CURVE('',#388,#389,#461,.T.);
#281=EDGE_CURVE('',#390,#389,#21,.T.);
#282=EDGE_CURVE('',#390,#391,#462,.T.);
#283=EDGE_CURVE('',#392,#391,#463,.T.);
#284=EDGE_CURVE('',#393,#392,#464,.T.);
#285=EDGE_CURVE('',#393,#394,#465,.T.);
#286=EDGE_CURVE('',#394,#395,#466,.T.);
#287=EDGE_CURVE('',#395,#374,#467,.F.);
#288=EDGE_CURVE('',#396,#396,#22,.T.);
#289=EDGE_CURVE('',#397,#397,#23,.T.);
#290=EDGE_CURVE('',#398,#399,#468,.T.);
#291=EDGE_CURVE('',#399,#391,#469,.T.);
#292=EDGE_CURVE('',#398,#390,#470,.T.);
#293=EDGE_CURVE('',#378,#400,#471,.T.);
#294=EDGE_CURVE('',#400,#401,#472,.T.);
#295=EDGE_CURVE('',#401,#393,#473,.T.);
#296=EDGE_CURVE('',#402,#392,#474,.T.);
#297=EDGE_CURVE('',#402,#403,#475,.T.);
#298=EDGE_CURVE('',#403,#379,#476,.T.);
#299=EDGE_CURVE('',#404,#405,#477,.T.);
#300=EDGE_CURVE('',#405,#395,#478,.T.);
#301=EDGE_CURVE('',#394,#404,#479,.T.);
#302=EDGE_CURVE('',#406,#407,#480,.T.);
#303=EDGE_CURVE('',#407,#375,#481,.T.);
#304=EDGE_CURVE('',#374,#406,#482,.T.);
#305=EDGE_CURVE('',#408,#408,#24,.T.);
#306=EDGE_CURVE('',#409,#409,#25,.T.);
#307=EDGE_CURVE('',#376,#410,#483,.T.);
#308=EDGE_CURVE('',#410,#411,#484,.T.);
#309=EDGE_CURVE('',#411,#377,#485,.T.);
#310=EDGE_CURVE('',#412,#413,#486,.T.);
#311=EDGE_CURVE('',#413,#414,#487,.T.);
#312=EDGE_CURVE('',#414,#415,#488,.T.);
#313=EDGE_CURVE('',#415,#412,#489,.T.);
#314=EDGE_CURVE('',#416,#380,#490,.T.);
#315=EDGE_CURVE('',#416,#417,#491,.T.);
#316=EDGE_CURVE('',#417,#381,#492,.T.);
#317=EDGE_CURVE('',#418,#389,#493,.T.);
#318=EDGE_CURVE('',#398,#418,#26,.T.);
#319=EDGE_CURVE('',#419,#388,#494,.T.);
#320=EDGE_CURVE('',#420,#419,#495,.T.);
#321=EDGE_CURVE('',#420,#418,#496,.T.);
#322=EDGE_CURVE('',#419,#421,#12,.T.);
#323=EDGE_CURVE('',#420,#421,#27,.T.);
#324=EDGE_CURVE('',#422,#423,#497,.T.);
#325=EDGE_CURVE('',#422,#387,#498,.T.);
#326=EDGE_CURVE('',#423,#386,#499,.T.);
#327=EDGE_CURVE('',#424,#385,#500,.T.);
#328=EDGE_CURVE('',#423,#424,#501,.T.);
#329=EDGE_CURVE('',#384,#425,#502,.T.);
#330=EDGE_CURVE('',#424,#425,#503,.T.);
#331=EDGE_CURVE('',#426,#427,#28,.T.);
#332=EDGE_CURVE('',#426,#428,#13,.T.);
#333=EDGE_CURVE('',#427,#428,#504,.T.);
#334=EDGE_CURVE('',#428,#383,#505,.T.);
#335=EDGE_CURVE('',#429,#382,#506,.T.);
#336=EDGE_CURVE('',#427,#429,#507,.T.);
#337=EDGE_CURVE('',#429,#417,#29,.T.);
#338=EDGE_CURVE('',#430,#431,#508,.T.);
#339=EDGE_CURVE('',#431,#432,#509,.T.);
#340=EDGE_CURVE('',#432,#433,#510,.T.);
#341=EDGE_CURVE('',#433,#430,#511,.T.);
#342=EDGE_CURVE('',#426,#425,#512,.T.);
#343=EDGE_CURVE('',#399,#416,#513,.T.);
#344=EDGE_CURVE('',#422,#421,#514,.T.);
#345=EDGE_CURVE('',#434,#399,#515,.T.);
#346=EDGE_CURVE('',#435,#416,#516,.T.);
#347=EDGE_CURVE('',#434,#435,#517,.T.);
#348=EDGE_CURVE('',#402,#434,#518,.T.);
#349=EDGE_CURVE('',#403,#435,#519,.T.);
#350=EDGE_CURVE('',#404,#401,#520,.T.);
#351=EDGE_CURVE('',#400,#411,#521,.F.);
#352=EDGE_CURVE('',#401,#412,#522,.F.);
#353=EDGE_CURVE('',#413,#400,#523,.F.);
#354=EDGE_CURVE('',#404,#412,#524,.F.);
#355=EDGE_CURVE('',#413,#411,#525,.T.);
#356=EDGE_CURVE('',#405,#415,#526,.T.);
#357=EDGE_CURVE('',#406,#405,#527,.F.);
#358=EDGE_CURVE('',#410,#407,#528,.T.);
#359=EDGE_CURVE('',#414,#410,#529,.F.);
#360=EDGE_CURVE('',#406,#415,#530,.F.);
#361=EDGE_CURVE('',#414,#407,#531,.F.);
#362=EDGE_CURVE('',#368,#433,#532,.T.);
#363=EDGE_CURVE('',#430,#367,#533,.T.);
#364=EDGE_CURVE('',#431,#371,#534,.F.);
#365=EDGE_CURVE('',#373,#432,#535,.T.);
#366=VERTEX_POINT('',#1127);
#367=VERTEX_POINT('',#1128);
#368=VERTEX_POINT('',#1130);
#369=VERTEX_POINT('',#1132);
#370=VERTEX_POINT('',#1136);
#371=VERTEX_POINT('',#1137);
#372=VERTEX_POINT('',#1142);
#373=VERTEX_POINT('',#1143);
#374=VERTEX_POINT('',#1151);
#375=VERTEX_POINT('',#1152);
#376=VERTEX_POINT('',#1154);
#377=VERTEX_POINT('',#1156);
#378=VERTEX_POINT('',#1158);
#379=VERTEX_POINT('',#1160);
#380=VERTEX_POINT('',#1162);
#381=VERTEX_POINT('',#1164);
#382=VERTEX_POINT('',#1166);
#383=VERTEX_POINT('',#1168);
#384=VERTEX_POINT('',#1170);
#385=VERTEX_POINT('',#1172);
#386=VERTEX_POINT('',#1174);
#387=VERTEX_POINT('',#1176);
#388=VERTEX_POINT('',#1178);
#389=VERTEX_POINT('',#1180);
#390=VERTEX_POINT('',#1182);
#391=VERTEX_POINT('',#1184);
#392=VERTEX_POINT('',#1186);
#393=VERTEX_POINT('',#1188);
#394=VERTEX_POINT('',#1190);
#395=VERTEX_POINT('',#1192);
#396=VERTEX_POINT('',#1195);
#397=VERTEX_POINT('',#1197);
#398=VERTEX_POINT('',#1200);
#399=VERTEX_POINT('',#1201);
#400=VERTEX_POINT('',#1206);
#401=VERTEX_POINT('',#1208);
#402=VERTEX_POINT('',#1211);
#403=VERTEX_POINT('',#1213);
#404=VERTEX_POINT('',#1217);
#405=VERTEX_POINT('',#1218);
#406=VERTEX_POINT('',#1223);
#407=VERTEX_POINT('',#1224);
#408=VERTEX_POINT('',#1229);
#409=VERTEX_POINT('',#1232);
#410=VERTEX_POINT('',#1235);
#411=VERTEX_POINT('',#1237);
#412=VERTEX_POINT('',#1241);
#413=VERTEX_POINT('',#1242);
#414=VERTEX_POINT('',#1244);
#415=VERTEX_POINT('',#1246);
#416=VERTEX_POINT('',#1250);
#417=VERTEX_POINT('',#1252);
#418=VERTEX_POINT('',#1256);
#419=VERTEX_POINT('',#1260);
#420=VERTEX_POINT('',#1262);
#421=VERTEX_POINT('',#1266);
#422=VERTEX_POINT('',#1270);
#423=VERTEX_POINT('',#1271);
#424=VERTEX_POINT('',#1276);
#425=VERTEX_POINT('',#1280);
#426=VERTEX_POINT('',#1284);
#427=VERTEX_POINT('',#1285);
#428=VERTEX_POINT('',#1287);
#429=VERTEX_POINT('',#1292);
#430=VERTEX_POINT('',#1298);
#431=VERTEX_POINT('',#1299);
#432=VERTEX_POINT('',#1301);
#433=VERTEX_POINT('',#1303);
#434=VERTEX_POINT('',#1310);
#435=VERTEX_POINT('',#1312);
#436=LINE('',#1126,#536);
#437=LINE('',#1129,#537);
#438=LINE('',#1131,#538);
#439=LINE('',#1133,#539);
#440=LINE('',#1135,#540);
#441=LINE('',#1138,#541);
#442=LINE('',#1139,#542);
#443=LINE('',#1141,#543);
#444=LINE('',#1144,#544);
#445=LINE('',#1145,#545);
#446=LINE('',#1147,#546);
#447=LINE('',#1148,#547);
#448=LINE('',#1150,#548);
#449=LINE('',#1153,#549);
#450=LINE('',#1155,#550);
#451=LINE('',#1157,#551);
#452=LINE('',#1159,#552);
#453=LINE('',#1161,#553);
#454=LINE('',#1163,#554);
#455=LINE('',#1167,#555);
#456=LINE('',#1169,#556);
#457=LINE('',#1171,#557);
#458=LINE('',#1173,#558);
#459=LINE('',#1175,#559);
#460=LINE('',#1177,#560);
#461=LINE('',#1179,#561);
#462=LINE('',#1183,#562);
#463=LINE('',#1185,#563);
#464=LINE('',#1187,#564);
#465=LINE('',#1189,#565);
#466=LINE('',#1191,#566);
#467=LINE('',#1193,#567);
#468=LINE('',#1199,#568);
#469=LINE('',#1202,#569);
#470=LINE('',#1203,#570);
#471=LINE('',#1205,#571);
#472=LINE('',#1207,#572);
#473=LINE('',#1209,#573);
#474=LINE('',#1210,#574);
#475=LINE('',#1212,#575);
#476=LINE('',#1214,#576);
#477=LINE('',#1216,#577);
#478=LINE('',#1219,#578);
#479=LINE('',#1220,#579);
#480=LINE('',#1222,#580);
#481=LINE('',#1225,#581);
#482=LINE('',#1226,#582);
#483=LINE('',#1234,#583);
#484=LINE('',#1236,#584);
#485=LINE('',#1238,#585);
#486=LINE('',#1240,#586);
#487=LINE('',#1243,#587);
#488=LINE('',#1245,#588);
#489=LINE('',#1247,#589);
#490=LINE('',#1249,#590);
#491=LINE('',#1251,#591);
#492=LINE('',#1253,#592);
#493=LINE('',#1255,#593);
#494=LINE('',#1259,#594);
#495=LINE('',#1261,#595);
#496=LINE('',#1263,#596);
#497=LINE('',#1269,#597);
#498=LINE('',#1272,#598);
#499=LINE('',#1273,#599);
#500=LINE('',#1275,#600);
#501=LINE('',#1277,#601);
#502=LINE('',#1279,#602);
#503=LINE('',#1281,#603);
#504=LINE('',#1288,#604);
#505=LINE('',#1290,#605);
#506=LINE('',#1291,#606);
#507=LINE('',#1293,#607);
#508=LINE('',#1297,#608);
#509=LINE('',#1300,#609);
#510=LINE('',#1302,#610);
#511=LINE('',#1304,#611);
#512=LINE('',#1305,#612);
#513=LINE('',#1306,#613);
#514=LINE('',#1307,#614);
#515=LINE('',#1309,#615);
#516=LINE('',#1311,#616);
#517=LINE('',#1313,#617);
#518=LINE('',#1315,#618);
#519=LINE('',#1317,#619);
#520=LINE('',#1322,#620);
#521=LINE('',#1324,#621);
#522=LINE('',#1326,#622);
#523=LINE('',#1327,#623);
#524=LINE('',#1329,#624);
#525=LINE('',#1331,#625);
#526=LINE('',#1333,#626);
#527=LINE('',#1335,#627);
#528=LINE('',#1337,#628);
#529=LINE('',#1339,#629);
#530=LINE('',#1341,#630);
#531=LINE('',#1343,#631);
#532=LINE('',#1347,#632);
#533=LINE('',#1348,#633);
#534=LINE('',#1350,#634);
#535=LINE('',#1352,#635);
#536=VECTOR('',#908,1.);
#537=VECTOR('',#909,1.);
#538=VECTOR('',#910,1.);
#539=VECTOR('',#911,1.);
#540=VECTOR('',#914,1.);
#541=VECTOR('',#915,1.);
#542=VECTOR('',#916,1.);
#543=VECTOR('',#919,1.);
#544=VECTOR('',#920,1.);
#545=VECTOR('',#921,1.);
#546=VECTOR('',#924,1.);
#547=VECTOR('',#925,1.);
#548=VECTOR('',#928,1.);
#549=VECTOR('',#929,1.);
#550=VECTOR('',#930,1.);
#551=VECTOR('',#931,1.);
#552=VECTOR('',#932,1.);
#553=VECTOR('',#933,1.);
#554=VECTOR('',#934,1.);
#555=VECTOR('',#937,1.);
#556=VECTOR('',#938,1.);
#557=VECTOR('',#939,1.);
#558=VECTOR('',#940,1.);
#559=VECTOR('',#941,1.);
#560=VECTOR('',#942,1.);
#561=VECTOR('',#943,1.);
#562=VECTOR('',#946,1.);
#563=VECTOR('',#947,1.);
#564=VECTOR('',#948,1.);
#565=VECTOR('',#949,1.);
#566=VECTOR('',#950,1.);
#567=VECTOR('',#951,1.);
#568=VECTOR('',#958,1.);
#569=VECTOR('',#959,1.);
#570=VECTOR('',#960,1.);
#571=VECTOR('',#963,1.);
#572=VECTOR('',#964,1.);
#573=VECTOR('',#965,1.);
#574=VECTOR('',#966,1.);
#575=VECTOR('',#967,1.);
#576=VECTOR('',#968,1.);
#577=VECTOR('',#971,1.);
#578=VECTOR('',#972,1.);
#579=VECTOR('',#973,1.);
#580=VECTOR('',#976,1.);
#581=VECTOR('',#977,1.);
#582=VECTOR('',#978,1.);
#583=VECTOR('',#989,1.);
#584=VECTOR('',#990,1.);
#585=VECTOR('',#991,1.);
#586=VECTOR('',#994,1.);
#587=VECTOR('',#995,1.);
#588=VECTOR('',#996,1.);
#589=VECTOR('',#997,1.);
#590=VECTOR('',#1000,1.);
#591=VECTOR('',#1001,1.);
#592=VECTOR('',#1002,1.);
#593=VECTOR('',#1005,1.);
#594=VECTOR('',#1010,1.);
#595=VECTOR('',#1011,1.);
#596=VECTOR('',#1012,1.);
#597=VECTOR('',#1021,1.);
#598=VECTOR('',#1022,1.);
#599=VECTOR('',#1023,1.);
#600=VECTOR('',#1026,1.);
#601=VECTOR('',#1027,1.);
#602=VECTOR('',#1030,1.);
#603=VECTOR('',#1031,1.);
#604=VECTOR('',#1038,1.);
#605=VECTOR('',#1041,1.);
#606=VECTOR('',#1042,1.);
#607=VECTOR('',#1043,1.);
#608=VECTOR('',#1050,1.);
#609=VECTOR('',#1051,1.);
#610=VECTOR('',#1052,1.);
#611=VECTOR('',#1053,1.);
#612=VECTOR('',#1054,1.);
#613=VECTOR('',#1055,1.);
#614=VECTOR('',#1056,1.);
#615=VECTOR('',#1059,1.);
#616=VECTOR('',#1060,1.);
#617=VECTOR('',#1061,1.);
#618=VECTOR('',#1064,1.);
#619=VECTOR('',#1067,1.);
#620=VECTOR('',#1076,1.);
#621=VECTOR('',#1079,1.);
#622=VECTOR('',#1082,1.);
#623=VECTOR('',#1083,1.);
#624=VECTOR('',#1086,1.);
#625=VECTOR('',#1089,1.);
#626=VECTOR('',#1092,1.);
#627=VECTOR('',#1095,1.);
#628=VECTOR('',#1098,1.);
#629=VECTOR('',#1101,1.);
#630=VECTOR('',#1104,1.);
#631=VECTOR('',#1107,1.);
#632=VECTOR('',#1114,1.);
#633=VECTOR('',#1115,1.);
#634=VECTOR('',#1118,1.);
#635=VECTOR('',#1121,1.);
#636=EDGE_LOOP('',(#30,#31,#32,#33));
#637=EDGE_LOOP('',(#34,#35,#36,#37));
#638=EDGE_LOOP('',(#38,#39,#40,#41));
#639=EDGE_LOOP('',(#42,#43,#44,#45));
#640=EDGE_LOOP('',(#46,#47,#48,#49,#50,#51,#52,#53,#54,#55,#56,#57,#58,
#59,#60,#61,#62,#63,#64,#65,#66,#67));
#641=EDGE_LOOP('',(#68));
#642=EDGE_LOOP('',(#69));
#643=EDGE_LOOP('',(#70,#71,#72,#73));
#644=EDGE_LOOP('',(#74,#75,#76,#77,#78,#79,#80,#81));
#645=EDGE_LOOP('',(#82,#83,#84,#85));
#646=EDGE_LOOP('',(#86,#87,#88,#89));
#647=EDGE_LOOP('',(#90));
#648=EDGE_LOOP('',(#91));
#649=EDGE_LOOP('',(#92));
#650=EDGE_LOOP('',(#93));
#651=EDGE_LOOP('',(#94,#95,#96,#97));
#652=EDGE_LOOP('',(#98,#99,#100,#101));
#653=EDGE_LOOP('',(#102));
#654=EDGE_LOOP('',(#103));
#655=EDGE_LOOP('',(#104,#105,#106,#107));
#656=EDGE_LOOP('',(#108,#109,#110,#111));
#657=EDGE_LOOP('',(#112,#113,#114,#115,#116));
#658=EDGE_LOOP('',(#117,#118,#119));
#659=EDGE_LOOP('',(#120,#121,#122,#123));
#660=EDGE_LOOP('',(#124,#125,#126,#127));
#661=EDGE_LOOP('',(#128,#129,#130,#131));
#662=EDGE_LOOP('',(#132,#133,#134));
#663=EDGE_LOOP('',(#135,#136,#137,#138,#139));
#664=EDGE_LOOP('',(#140,#141,#142,#143));
#665=EDGE_LOOP('',(#144,#145,#146,#147));
#666=EDGE_LOOP('',(#148,#149,#150,#151,#152,#153,#154,#155,#156,#157,#158,
#159,#160,#161));
#667=EDGE_LOOP('',(#162,#163,#164,#165));
#668=EDGE_LOOP('',(#166,#167,#168,#169,#170));
#669=EDGE_LOOP('',(#171,#172,#173,#174,#175));
#670=EDGE_LOOP('',(#176,#177,#178,#179));
#671=EDGE_LOOP('',(#180,#181,#182,#183,#184));
#672=EDGE_LOOP('',(#185,#186,#187,#188,#189));
#673=EDGE_LOOP('',(#190,#191,#192,#193));
#674=EDGE_LOOP('',(#194,#195,#196,#197));
#675=EDGE_LOOP('',(#198,#199,#200,#201));
#676=EDGE_LOOP('',(#202,#203,#204));
#677=EDGE_LOOP('',(#205,#206,#207));
#678=EDGE_LOOP('',(#208,#209,#210,#211));
#679=EDGE_LOOP('',(#212,#213,#214,#215));
#680=EDGE_LOOP('',(#216,#217,#218,#219));
#681=EDGE_LOOP('',(#220,#221,#222,#223));
#682=EDGE_LOOP('',(#224,#225,#226));
#683=EDGE_LOOP('',(#227,#228,#229));
#684=EDGE_LOOP('',(#230,#231,#232,#233));
#685=EDGE_LOOP('',(#234,#235,#236,#237));
#686=EDGE_LOOP('',(#238,#239,#240,#241));
#687=EDGE_LOOP('',(#242,#243,#244,#245));
#688=EDGE_LOOP('',(#246,#247,#248,#249));
#689=EDGE_LOOP('',(#250,#251,#252,#253));
#690=FACE_BOUND('',#636,.T.);
#691=FACE_BOUND('',#637,.T.);
#692=FACE_BOUND('',#638,.T.);
#693=FACE_BOUND('',#639,.T.);
#694=FACE_BOUND('',#640,.T.);
#695=FACE_BOUND('',#641,.T.);
#696=FACE_BOUND('',#642,.T.);
#697=FACE_BOUND('',#643,.T.);
#698=FACE_BOUND('',#644,.T.);
#699=FACE_BOUND('',#645,.T.);
#700=FACE_BOUND('',#646,.T.);
#701=FACE_BOUND('',#647,.T.);
#702=FACE_BOUND('',#648,.T.);
#703=FACE_BOUND('',#649,.T.);
#704=FACE_BOUND('',#650,.T.);
#705=FACE_BOUND('',#651,.T.);
#706=FACE_BOUND('',#652,.T.);
#707=FACE_BOUND('',#653,.T.);
#708=FACE_BOUND('',#654,.T.);
#709=FACE_BOUND('',#655,.T.);
#710=FACE_BOUND('',#656,.T.);
#711=FACE_BOUND('',#657,.T.);
#712=FACE_BOUND('',#658,.T.);
#713=FACE_BOUND('',#659,.T.);
#714=FACE_BOUND('',#660,.T.);
#715=FACE_BOUND('',#661,.T.);
#716=FACE_BOUND('',#662,.T.);
#717=FACE_BOUND('',#663,.T.);
#718=FACE_BOUND('',#664,.T.);
#719=FACE_BOUND('',#665,.T.);
#720=FACE_BOUND('',#666,.T.);
#721=FACE_BOUND('',#667,.T.);
#722=FACE_BOUND('',#668,.T.);
#723=FACE_BOUND('',#669,.T.);
#724=FACE_BOUND('',#670,.T.);
#725=FACE_BOUND('',#671,.T.);
#726=FACE_BOUND('',#672,.T.);
#727=FACE_BOUND('',#673,.T.);
#728=FACE_BOUND('',#674,.T.);
#729=FACE_BOUND('',#675,.T.);
#730=FACE_BOUND('',#676,.T.);
#731=FACE_BOUND('',#677,.T.);
#732=FACE_BOUND('',#678,.T.);
#733=FACE_BOUND('',#679,.T.);
#734=FACE_BOUND('',#680,.T.);
#735=FACE_BOUND('',#681,.T.);
#736=FACE_BOUND('',#682,.T.);
#737=FACE_BOUND('',#683,.T.);
#738=FACE_BOUND('',#684,.T.);
#739=FACE_BOUND('',#685,.T.);
#740=FACE_BOUND('',#686,.T.);
#741=FACE_BOUND('',#687,.T.);
#742=FACE_BOUND('',#688,.T.);
#743=FACE_BOUND('',#689,.T.);
#744=PLANE('',#845);
#745=PLANE('',#846);
#746=PLANE('',#847);
#747=PLANE('',#848);
#748=PLANE('',#849);
#749=PLANE('',#854);
#750=PLANE('',#855);
#751=PLANE('',#856);
#752=PLANE('',#857);
#753=PLANE('',#862);
#754=PLANE('',#863);
#755=PLANE('',#864);
#756=PLANE('',#867);
#757=PLANE('',#871);
#758=PLANE('',#872);
#759=PLANE('',#873);
#760=PLANE('',#877);
#761=PLANE('',#880);
#762=PLANE('',#881);
#763=PLANE('',#882);
#764=PLANE('',#883);
#765=PLANE('',#884);
#766=PLANE('',#885);
#767=PLANE('',#886);
#768=PLANE('',#887);
#769=PLANE('',#888);
#770=PLANE('',#889);
#771=PLANE('',#890);
#772=PLANE('',#891);
#773=PLANE('',#892);
#774=PLANE('',#893);
#775=PLANE('',#894);
#776=PLANE('',#895);
#777=PLANE('',#896);
#778=PLANE('',#897);
#779=PLANE('',#898);
#780=PLANE('',#899);
#781=PLANE('',#900);
#782=PLANE('',#901);
#783=PLANE('',#902);
#784=PLANE('',#903);
#785=ADVANCED_FACE('',(#690),#744,.F.);
#786=ADVANCED_FACE('',(#691),#745,.T.);
#787=ADVANCED_FACE('',(#692),#746,.T.);
#788=ADVANCED_FACE('',(#693),#747,.F.);
#789=ADVANCED_FACE('',(#694,#695,#696),#748,.T.);
#790=ADVANCED_FACE('',(#697),#749,.T.);
#791=ADVANCED_FACE('',(#698),#750,.F.);
#792=ADVANCED_FACE('',(#699),#751,.T.);
#793=ADVANCED_FACE('',(#700),#752,.T.);
#794=ADVANCED_FACE('',(#701,#702),#14,.F.);
#795=ADVANCED_FACE('',(#703,#704),#15,.F.);
#796=ADVANCED_FACE('',(#705),#753,.F.);
#797=ADVANCED_FACE('',(#706,#707,#708),#754,.F.);
#798=ADVANCED_FACE('',(#709),#755,.T.);
#799=ADVANCED_FACE('',(#710),#16,.T.);
#800=ADVANCED_FACE('',(#711),#756,.T.);
#801=ADVANCED_FACE('',(#712),#17,.T.);
#802=ADVANCED_FACE('',(#713),#757,.F.);
#803=ADVANCED_FACE('',(#714),#758,.F.);
#804=ADVANCED_FACE('',(#715),#759,.F.);
#805=ADVANCED_FACE('',(#716),#18,.T.);
#806=ADVANCED_FACE('',(#717),#760,.F.);
#807=ADVANCED_FACE('',(#718),#19,.T.);
#808=ADVANCED_FACE('',(#719,#720),#761,.T.);
#809=ADVANCED_FACE('',(#721),#762,.F.);
#810=ADVANCED_FACE('',(#722),#763,.F.);
#811=ADVANCED_FACE('',(#723),#764,.T.);
#812=ADVANCED_FACE('',(#724),#765,.T.);
#813=ADVANCED_FACE('',(#725),#766,.F.);
#814=ADVANCED_FACE('',(#726),#767,.F.);
#815=ADVANCED_FACE('',(#727),#768,.T.);
#816=ADVANCED_FACE('',(#728),#769,.F.);
#817=ADVANCED_FACE('',(#729),#770,.F.);
#818=ADVANCED_FACE('',(#730),#771,.T.);
#819=ADVANCED_FACE('',(#731),#772,.T.);
#820=ADVANCED_FACE('',(#732),#773,.T.);
#821=ADVANCED_FACE('',(#733),#774,.F.);
#822=ADVANCED_FACE('',(#734),#775,.T.);
#823=ADVANCED_FACE('',(#735),#776,.F.);
#824=ADVANCED_FACE('',(#736),#777,.T.);
#825=ADVANCED_FACE('',(#737),#778,.T.);
#826=ADVANCED_FACE('',(#738),#779,.T.);
#827=ADVANCED_FACE('',(#739),#780,.T.);
#828=ADVANCED_FACE('',(#740),#781,.T.);
#829=ADVANCED_FACE('',(#741),#782,.F.);
#830=ADVANCED_FACE('',(#742),#783,.T.);
#831=ADVANCED_FACE('',(#743),#784,.F.);
#832=CLOSED_SHELL('',(#785,#786,#787,#788,#789,#790,#791,#792,#793,#794,
#795,#796,#797,#798,#799,#800,#801,#802,#803,#804,#805,#806,#807,#808,#809,
#810,#811,#812,#813,#814,#815,#816,#817,#818,#819,#820,#821,#822,#823,#824,
#825,#826,#827,#828,#829,#830,#831));
#833=STYLED_ITEM('',(#834),#841);
#834=PRESENTATION_STYLE_ASSIGNMENT((#835));
#835=SURFACE_STYLE_USAGE(.BOTH.,#836);
#836=SURFACE_SIDE_STYLE('',(#837));
#837=SURFACE_STYLE_FILL_AREA(#838);
#838=FILL_AREA_STYLE('',(#839));
#839=FILL_AREA_STYLE_COLOUR('',#840);
#840=DRAUGHTING_PRE_DEFINED_COLOUR('white');
#841=MANIFOLD_SOLID_BREP('Lid',#832);
#842=SHAPE_DEFINITION_REPRESENTATION(#1360,#843);
#843=SHAPE_REPRESENTATION('Lid',(#844),#1355);
#844=AXIS2_PLACEMENT_3D('',#1124,#904,#905);
#845=AXIS2_PLACEMENT_3D('',#1125,#906,#907);
#846=AXIS2_PLACEMENT_3D('',#1134,#912,#913);
#847=AXIS2_PLACEMENT_3D('',#1140,#917,#918);
#848=AXIS2_PLACEMENT_3D('',#1146,#922,#923);
#849=AXIS2_PLACEMENT_3D('',#1149,#926,#927);
#850=AXIS2_PLACEMENT_3D('',#1165,#935,#936);
#851=AXIS2_PLACEMENT_3D('',#1181,#944,#945);
#852=AXIS2_PLACEMENT_3D('',#1194,#952,#953);
#853=AXIS2_PLACEMENT_3D('',#1196,#954,#955);
#854=AXIS2_PLACEMENT_3D('',#1198,#956,#957);
#855=AXIS2_PLACEMENT_3D('',#1204,#961,#962);
#856=AXIS2_PLACEMENT_3D('',#1215,#969,#970);
#857=AXIS2_PLACEMENT_3D('',#1221,#974,#975);
#858=AXIS2_PLACEMENT_3D('',#1227,#979,#980);
#859=AXIS2_PLACEMENT_3D('',#1228,#981,#982);
#860=AXIS2_PLACEMENT_3D('',#1230,#983,#984);
#861=AXIS2_PLACEMENT_3D('',#1231,#985,#986);
#862=AXIS2_PLACEMENT_3D('',#1233,#987,#988);
#863=AXIS2_PLACEMENT_3D('',#1239,#992,#993);
#864=AXIS2_PLACEMENT_3D('',#1248,#998,#999);
#865=AXIS2_PLACEMENT_3D('',#1254,#1003,#1004);
#866=AXIS2_PLACEMENT_3D('',#1257,#1006,#1007);
#867=AXIS2_PLACEMENT_3D('',#1258,#1008,#1009);
#868=AXIS2_PLACEMENT_3D('',#1264,#1013,#1014);
#869=AXIS2_PLACEMENT_3D('',#1265,#1015,#1016);
#870=AXIS2_PLACEMENT_3D('',#1267,#1017,#1018);
#871=AXIS2_PLACEMENT_3D('',#1268,#1019,#1020);
#872=AXIS2_PLACEMENT_3D('',#1274,#1024,#1025);
#873=AXIS2_PLACEMENT_3D('',#1278,#1028,#1029);
#874=AXIS2_PLACEMENT_3D('',#1282,#1032,#1033);
#875=AXIS2_PLACEMENT_3D('',#1283,#1034,#1035);
#876=AXIS2_PLACEMENT_3D('',#1286,#1036,#1037);
#877=AXIS2_PLACEMENT_3D('',#1289,#1039,#1040);
#878=AXIS2_PLACEMENT_3D('',#1294,#1044,#1045);
#879=AXIS2_PLACEMENT_3D('',#1295,#1046,#1047);
#880=AXIS2_PLACEMENT_3D('',#1296,#1048,#1049);
#881=AXIS2_PLACEMENT_3D('',#1308,#1057,#1058);
#882=AXIS2_PLACEMENT_3D('',#1314,#1062,#1063);
#883=AXIS2_PLACEMENT_3D('',#1316,#1065,#1066);
#884=AXIS2_PLACEMENT_3D('',#1318,#1068,#1069);
#885=AXIS2_PLACEMENT_3D('',#1319,#1070,#1071);
#886=AXIS2_PLACEMENT_3D('',#1320,#1072,#1073);
#887=AXIS2_PLACEMENT_3D('',#1321,#1074,#1075);
#888=AXIS2_PLACEMENT_3D('',#1323,#1077,#1078);
#889=AXIS2_PLACEMENT_3D('',#1325,#1080,#1081);
#890=AXIS2_PLACEMENT_3D('',#1328,#1084,#1085);
#891=AXIS2_PLACEMENT_3D('',#1330,#1087,#1088);
#892=AXIS2_PLACEMENT_3D('',#1332,#1090,#1091);
#893=AXIS2_PLACEMENT_3D('',#1334,#1093,#1094);
#894=AXIS2_PLACEMENT_3D('',#1336,#1096,#1097);
#895=AXIS2_PLACEMENT_3D('',#1338,#1099,#1100);
#896=AXIS2_PLACEMENT_3D('',#1340,#1102,#1103);
#897=AXIS2_PLACEMENT_3D('',#1342,#1105,#1106);
#898=AXIS2_PLACEMENT_3D('',#1344,#1108,#1109);
#899=AXIS2_PLACEMENT_3D('',#1345,#1110,#1111);
#900=AXIS2_PLACEMENT_3D('',#1346,#1112,#1113);
#901=AXIS2_PLACEMENT_3D('',#1349,#1116,#1117);
#902=AXIS2_PLACEMENT_3D('',#1351,#1119,#1120);
#903=AXIS2_PLACEMENT_3D('',#1353,#1122,#1123);
#904=DIRECTION('',(0.,0.,1.));
#905=DIRECTION('',(1.,0.,0.));
#906=DIRECTION('',(-1.,0.,0.));
#907=DIRECTION('',(0.,0.,1.));
#908=DIRECTION('',(0.,0.,1.));
#909=DIRECTION('',(0.,-1.,0.));
#910=DIRECTION('',(0.,0.,1.));
#911=DIRECTION('',(0.,-1.,0.));
#912=DIRECTION('',(-1.44560289664734E-16,-1.,0.));
#913=DIRECTION('',(1.,-1.44560289664734E-16,0.));
#914=DIRECTION('',(0.,0.,1.));
#915=DIRECTION('',(-1.,1.44560289664734E-16,0.));
#916=DIRECTION('',(1.,-1.44560289664734E-16,0.));
#917=DIRECTION('',(-1.,4.08170229641602E-16,0.));
#918=DIRECTION('',(-4.08170229641602E-16,-1.,0.));
#919=DIRECTION('',(0.,0.,1.));
#920=DIRECTION('',(4.08170229641602E-16,1.,0.));
#921=DIRECTION('',(-4.08170229641602E-16,-1.,0.));
#922=DIRECTION('',(-1.44560289664734E-16,-1.,0.));
#923=DIRECTION('',(1.,-1.44560289664734E-16,0.));
#924=DIRECTION('',(1.,-1.44560289664734E-16,0.));
#925=DIRECTION('',(1.,-1.44560289664734E-16,0.));
#926=DIRECTION('',(0.,0.,1.));
#927=DIRECTION('',(1.,0.,0.));
#928=DIRECTION('',(0.,-1.,0.));
#929=DIRECTION('',(0.707106781186546,-0.707106781186549,0.));
#930=DIRECTION('',(-1.,2.53861972094167E-16,0.));
#931=DIRECTION('',(-0.707106781186548,-0.707106781186548,0.));
#932=DIRECTION('',(0.,-1.,0.));
#933=DIRECTION('',(-1.,1.35525271560688E-16,0.));
#934=DIRECTION('',(-3.43509599203328E-16,-1.,0.));
#935=DIRECTION('',(0.,0.,1.));
#936=DIRECTION('',(1.,0.,0.));
#937=DIRECTION('',(1.,-1.2426385931066E-16,0.));
#938=DIRECTION('',(0.,-1.,0.));
#939=DIRECTION('',(-1.,0.,0.));
#940=DIRECTION('',(0.,-1.,0.));
#941=DIRECTION('',(1.,0.,0.));
#942=DIRECTION('',(0.,-1.,0.));
#943=DIRECTION('',(1.,-1.2426385931066E-16,0.));
#944=DIRECTION('',(0.,0.,1.));
#945=DIRECTION('',(1.,0.,0.));
#946=DIRECTION('',(-3.43509599203328E-16,-1.,0.));
#947=DIRECTION('',(-1.,1.35525271560688E-16,0.));
#948=DIRECTION('',(0.,-1.,0.));
#949=DIRECTION('',(-0.707106781186549,0.707106781186546,0.));
#950=DIRECTION('',(-1.,2.53861972094167E-16,0.));
#951=DIRECTION('',(0.707106781186539,0.707106781186556,0.));
#952=DIRECTION('',(0.,0.,-1.));
#953=DIRECTION('',(1.,0.,0.));
#954=DIRECTION('',(0.,0.,1.));
#955=DIRECTION('',(1.,0.,0.));
#956=DIRECTION('',(1.,-3.43509599203328E-16,0.));
#957=DIRECTION('',(3.43509599203328E-16,1.,0.));
#958=DIRECTION('',(-3.43509599203328E-16,-1.,0.));
#959=DIRECTION('',(0.,0.,-1.));
#960=DIRECTION('',(0.,0.,-1.));
#961=DIRECTION('',(-1.,0.,0.));
#962=DIRECTION('',(0.,0.,1.));
#963=DIRECTION('',(0.,0.,-1.));
#964=DIRECTION('',(0.,1.,0.));
#965=DIRECTION('',(0.,0.,1.));
#966=DIRECTION('',(0.,0.,-1.));
#967=DIRECTION('',(0.,-1.,0.));
#968=DIRECTION('',(0.,0.,-1.));
#969=DIRECTION('',(2.53861972094167E-16,1.,0.));
#970=DIRECTION('',(-1.,2.53861972094167E-16,0.));
#971=DIRECTION('',(-1.,2.53861972094167E-16,0.));
#972=DIRECTION('',(0.,0.,1.));
#973=DIRECTION('',(0.,0.,-1.));
#974=DIRECTION('',(-1.,0.,0.));
#975=DIRECTION('',(0.,0.,1.));
#976=DIRECTION('',(0.,-1.,0.));
#977=DIRECTION('',(0.,0.,1.));
#978=DIRECTION('',(0.,0.,-1.));
#979=DIRECTION('',(0.,0.,1.));
#980=DIRECTION('',(1.,0.,0.));
#981=DIRECTION('',(0.,0.,-1.));
#982=DIRECTION('',(1.,0.,0.));
#983=DIRECTION('',(0.,0.,1.));
#984=DIRECTION('',(1.,0.,0.));
#985=DIRECTION('',(0.,0.,1.));
#986=DIRECTION('',(1.,0.,0.));
#987=DIRECTION('',(2.53861972094167E-16,1.,0.));
#988=DIRECTION('',(-1.,2.53861972094167E-16,0.));
#989=DIRECTION('',(0.,0.,-1.));
#990=DIRECTION('',(1.,-2.53861972094167E-16,0.));
#991=DIRECTION('',(0.,0.,1.));
#992=DIRECTION('',(0.,0.,1.));
#993=DIRECTION('',(1.,0.,0.));
#994=DIRECTION('',(0.,-1.,0.));
#995=DIRECTION('',(-1.,2.53861972094167E-16,0.));
#996=DIRECTION('',(0.,1.,0.));
#997=DIRECTION('',(1.,-2.53861972094167E-16,0.));
#998=DIRECTION('',(1.,-3.43509599203328E-16,0.));
#999=DIRECTION('',(3.43509599203328E-16,1.,0.));
#1000=DIRECTION('',(0.,0.,-1.));
#1001=DIRECTION('',(-3.43509599203328E-16,-1.,0.));
#1002=DIRECTION('',(0.,0.,-1.));
#1003=DIRECTION('',(0.,0.,-1.));
#1004=DIRECTION('',(-1.,0.,0.));
#1005=DIRECTION('',(0.,0.,-1.));
#1006=DIRECTION('',(0.,0.,1.));
#1007=DIRECTION('',(1.,0.,0.));
#1008=DIRECTION('',(1.2426385931066E-16,1.,0.));
#1009=DIRECTION('',(-1.,1.2426385931066E-16,0.));
#1010=DIRECTION('',(0.707106781186547,-8.78678175749784E-17,-0.707106781186548));
#1011=DIRECTION('',(0.,0.,-1.));
#1012=DIRECTION('',(1.,-1.2426385931066E-16,0.));
#1013=DIRECTION('',(0.,0.,-1.));
#1014=DIRECTION('',(-1.,0.,0.));
#1015=DIRECTION('',(0.707106781186548,0.,0.707106781186547));
#1016=DIRECTION('',(0.707106781186547,0.,-0.707106781186548));
#1017=DIRECTION('',(0.,0.,1.));
#1018=DIRECTION('',(1.,0.,0.));
#1019=DIRECTION('',(0.,1.,0.));
#1020=DIRECTION('',(0.,0.,1.));
#1021=DIRECTION('',(1.,0.,0.));
#1022=DIRECTION('',(0.707106781186547,0.,-0.707106781186548));
#1023=DIRECTION('',(0.,0.,-1.));
#1024=DIRECTION('',(1.,0.,0.));
#1025=DIRECTION('',(0.,0.,-1.));
#1026=DIRECTION('',(0.,0.,-1.));
#1027=DIRECTION('',(0.,-1.,0.));
#1028=DIRECTION('',(0.,-1.,0.));
#1029=DIRECTION('',(0.,0.,-1.));
#1030=DIRECTION('',(-0.707106781186547,0.,0.707106781186548));
#1031=DIRECTION('',(-1.,0.,0.));
#1032=DIRECTION('',(0.,0.,-1.));
#1033=DIRECTION('',(-1.,0.,0.));
#1034=DIRECTION('',(0.,0.,1.));
#1035=DIRECTION('',(1.,0.,0.));
#1036=DIRECTION('',(0.707106781186548,0.,0.707106781186547));
#1037=DIRECTION('',(0.707106781186547,0.,-0.707106781186548));
#1038=DIRECTION('',(0.,0.,-1.));
#1039=DIRECTION('',(1.2426385931066E-16,1.,0.));
#1040=DIRECTION('',(-1.,1.2426385931066E-16,0.));
#1041=DIRECTION('',(0.707106781186547,-8.78678175749784E-17,-0.707106781186548));
#1042=DIRECTION('',(0.,0.,-1.));
#1043=DIRECTION('',(1.,-1.2426385931066E-16,0.));
#1044=DIRECTION('',(0.,0.,-1.));
#1045=DIRECTION('',(-1.,0.,0.));
#1046=DIRECTION('',(0.,0.,1.));
#1047=DIRECTION('',(1.,0.,0.));
#1048=DIRECTION('',(0.,0.,1.));
#1049=DIRECTION('',(1.,0.,0.));
#1050=DIRECTION('',(1.,-1.44560289664734E-16,0.));
#1051=DIRECTION('',(-4.08170229641602E-16,-1.,0.));
#1052=DIRECTION('',(-1.,1.44560289664734E-16,0.));
#1053=DIRECTION('',(0.,1.,0.));
#1054=DIRECTION('',(0.,1.,0.));
#1055=DIRECTION('',(-3.43509599203328E-16,-1.,0.));
#1056=DIRECTION('',(0.,1.,0.));
#1057=DIRECTION('',(1.,-3.43509599203328E-16,0.));
#1058=DIRECTION('',(3.43509599203328E-16,1.,0.));
#1059=DIRECTION('',(0.,0.,-1.));
#1060=DIRECTION('',(0.,0.,-1.));
#1061=DIRECTION('',(-3.43509599203328E-16,-1.,0.));
#1062=DIRECTION('',(-1.35525271560688E-16,-1.,0.));
#1063=DIRECTION('',(1.,-1.35525271560688E-16,0.));
#1064=DIRECTION('',(-1.,1.35525271560688E-16,0.));
#1065=DIRECTION('',(-1.35525271560688E-16,-1.,0.));
#1066=DIRECTION('',(1.,-1.35525271560688E-16,0.));
#1067=DIRECTION('',(-1.,1.35525271560688E-16,0.));
#1068=DIRECTION('',(0.,0.,1.));
#1069=DIRECTION('',(1.,0.,0.));
#1070=DIRECTION('',(0.707106781186548,0.,0.707106781186547));
#1071=DIRECTION('',(0.707106781186547,0.,-0.707106781186548));
#1072=DIRECTION('',(0.707106781186548,0.,0.707106781186547));
#1073=DIRECTION('',(0.707106781186547,0.,-0.707106781186548));
#1074=DIRECTION('',(0.707106781186546,0.707106781186549,0.));
#1075=DIRECTION('',(0.,0.,-1.));
#1076=DIRECTION('',(0.707106781186549,-0.707106781186546,-2.11464239272457E-16));
#1077=DIRECTION('',(-0.707106781186548,0.707106781186548,0.));
#1078=DIRECTION('',(0.,0.,1.));
#1079=DIRECTION('',(0.707106781186548,0.707106781186548,0.));
#1080=DIRECTION('',(-0.707106781186547,0.,0.707106781186548));
#1081=DIRECTION('',(0.,-1.,0.));
#1082=DIRECTION('',(0.707106781186548,2.40370335797945E-15,0.707106781186547));
#1083=DIRECTION('',(-0.707106781186548,0.,-0.707106781186547));
#1084=DIRECTION('',(0.577350269189624,0.577350269189627,-0.577350269189627));
#1085=DIRECTION('',(0.,0.707106781186548,0.707106781186547));
#1086=DIRECTION('',(-2.88444402957535E-16,0.707106781186548,0.707106781186547));
#1087=DIRECTION('',(0.577350269189626,-0.577350269189626,-0.577350269189626));
#1088=DIRECTION('',(-0.707106781186548,0.,-0.707106781186547));
#1089=DIRECTION('',(0.,-0.707106781186548,0.707106781186547));
#1090=DIRECTION('',(1.79507521953175E-16,0.707106781186547,-0.707106781186548));
#1091=DIRECTION('',(1.,-2.53861972094167E-16,0.));
#1092=DIRECTION('',(9.61481343191766E-17,-0.707106781186548,-0.707106781186547));
#1093=DIRECTION('',(0.707106781186556,-0.707106781186539,0.));
#1094=DIRECTION('',(0.,0.,1.));
#1095=DIRECTION('',(-0.707106781186539,-0.707106781186556,1.8370866365683E-16));
#1096=DIRECTION('',(-0.707106781186549,-0.707106781186546,0.));
#1097=DIRECTION('',(0.,0.,-1.));
#1098=DIRECTION('',(-0.707106781186546,0.707106781186549,-1.47365483059672E-16));
#1099=DIRECTION('',(1.79507521953175E-16,0.707106781186547,0.707106781186548));
#1100=DIRECTION('',(-1.,2.53861972094167E-16,0.));
#1101=DIRECTION('',(-2.77555756156289E-17,0.707106781186548,-0.707106781186547));
#1102=DIRECTION('',(-0.577350269189635,0.577350269189621,-0.577350269189621));
#1103=DIRECTION('',(-0.707106781186539,0.,0.707106781186556));
#1104=DIRECTION('',(-0.707106781186548,-1.71827604675174E-14,0.707106781186547));
#1105=DIRECTION('',(-0.577350269189627,-0.577350269189625,-0.577350269189625));
#1106=DIRECTION('',(-0.707106781186547,0.,0.707106781186548));
#1107=DIRECTION('',(0.707106781186548,-2.3481922067482E-15,-0.707106781186547));
#1108=DIRECTION('',(-0.707106781186547,0.,-0.707106781186548));
#1109=DIRECTION('',(0.,1.,0.));
#1110=DIRECTION('',(0.,0.,1.));
#1111=DIRECTION('',(1.,0.,0.));
#1112=DIRECTION('',(0.707106781186547,0.,0.707106781186548));
#1113=DIRECTION('',(0.,1.,0.));
#1114=DIRECTION('',(-0.577350269189626,-0.577350269189625,0.577350269189626));
#1115=DIRECTION('',(0.577350269189626,-0.577350269189625,-0.577350269189626));
#1116=DIRECTION('',(1.02219561112225E-16,0.707106781186548,-0.707106781186547));
#1117=DIRECTION('',(1.,-1.44560289664734E-16,0.));
#1118=DIRECTION('',(0.577350269189626,0.577350269189625,0.577350269189626));
#1119=DIRECTION('',(1.02219561112225E-16,0.707106781186548,0.707106781186547));
#1120=DIRECTION('',(-1.,1.44560289664734E-16,0.));
#1121=DIRECTION('',(0.577350269189625,-0.577350269189626,0.577350269189626));
#1122=DIRECTION('',(0.707106781186548,-2.88619937258047E-16,-0.707106781186547));
#1123=DIRECTION('',(-4.08170229641602E-16,-1.,0.));
#1124=CARTESIAN_POINT('',(0.,0.,0.));
#1125=CARTESIAN_POINT('',(-0.042,0.,-0.002));
#1126=CARTESIAN_POINT('',(-0.042,0.0085,-0.002));
#1127=CARTESIAN_POINT('',(-0.042,0.0085,-0.001));
#1128=CARTESIAN_POINT('',(-0.042,0.0085,-0.0005));
#1129=CARTESIAN_POINT('',(-0.042,-0.0085,-0.0005));
#1130=CARTESIAN_POINT('',(-0.042,-0.0085,-0.0005));
#1131=CARTESIAN_POINT('',(-0.042,-0.0085,-0.002));
#1132=CARTESIAN_POINT('',(-0.042,-0.0085,-0.001));
#1133=CARTESIAN_POINT('',(-0.042,0.,-0.001));
#1134=CARTESIAN_POINT('',(-0.036,0.0085,-0.002));
#1135=CARTESIAN_POINT('',(-0.03,0.0085,-0.002));
#1136=CARTESIAN_POINT('',(-0.03,0.0085,-0.001));
#1137=CARTESIAN_POINT('',(-0.03,0.0085,-0.0005));
#1138=CARTESIAN_POINT('',(-0.036,0.0085,-0.0005));
#1139=CARTESIAN_POINT('',(-0.036,0.0085,-0.001));
#1140=CARTESIAN_POINT('',(-0.03,0.,-0.002));
#1141=CARTESIAN_POINT('',(-0.03,-0.0085,-0.002));
#1142=CARTESIAN_POINT('',(-0.03,-0.0085,-0.001));
#1143=CARTESIAN_POINT('',(-0.03,-0.0085,-0.0005));
#1144=CARTESIAN_POINT('',(-0.03,0.,-0.0005));
#1145=CARTESIAN_POINT('',(-0.03,0.,-0.001));
#1146=CARTESIAN_POINT('',(-0.036,-0.0085,-0.002));
#1147=CARTESIAN_POINT('',(-0.03,-0.0085,-0.0005));
#1148=CARTESIAN_POINT('',(-0.036,-0.0085,-0.001));
#1149=CARTESIAN_POINT('',(-0.041,0.,0.));
#1150=CARTESIAN_POINT('',(-0.082,0.,0.));
#1151=CARTESIAN_POINT('',(-0.082,0.0162,0.));
#1152=CARTESIAN_POINT('',(-0.082,-0.0162,0.));
#1153=CARTESIAN_POINT('',(-0.0696,-0.0286,0.));
#1154=CARTESIAN_POINT('',(-0.081,-0.0172,0.));
#1155=CARTESIAN_POINT('',(-0.041,-0.0172,0.));
#1156=CARTESIAN_POINT('',(-0.001,-0.0172,0.));
#1157=CARTESIAN_POINT('',(-0.0124,-0.0286,0.));
#1158=CARTESIAN_POINT('',(0.,-0.0162,0.));
#1159=CARTESIAN_POINT('',(0.,-0.011125,0.));
#1160=CARTESIAN_POINT('',(-1.51788304147971E-18,-0.00505,0.));
#1161=CARTESIAN_POINT('',(-0.0032,-0.00505,0.));
#1162=CARTESIAN_POINT('',(-0.0064,-0.00505,0.));
#1163=CARTESIAN_POINT('',(-0.0064,8.67361737988404E-19,0.));
#1164=CARTESIAN_POINT('',(-0.0064,-0.0139,0.));
#1165=CARTESIAN_POINT('',(-0.0079,-0.0139,0.));
#1166=CARTESIAN_POINT('',(-0.0079,-0.0154,0.));
#1167=CARTESIAN_POINT('',(-0.0428,-0.0154,0.));
#1168=CARTESIAN_POINT('',(-0.0774,-0.0154,9.10729824887824E-18));
#1169=CARTESIAN_POINT('',(-0.0774,0.168360230175073,9.10729824887824E-18));
#1170=CARTESIAN_POINT('',(-0.0774,-0.004,9.10729824887824E-18));
#1171=CARTESIAN_POINT('',(-0.0777,-0.004,0.));
#1172=CARTESIAN_POINT('',(-0.0762,-0.004,0.));
#1173=CARTESIAN_POINT('',(-0.0762,0.,0.));
#1174=CARTESIAN_POINT('',(-0.0762,0.004,0.));
#1175=CARTESIAN_POINT('',(-0.0777,0.004,0.));
#1176=CARTESIAN_POINT('',(-0.0774,0.004,9.10729824887824E-18));
#1177=CARTESIAN_POINT('',(-0.0774,0.168360230175073,9.10729824887824E-18));
#1178=CARTESIAN_POINT('',(-0.0774,0.0154,9.10729824887824E-18));
#1179=CARTESIAN_POINT('',(-0.0428,0.0154,0.));
#1180=CARTESIAN_POINT('',(-0.0079,0.0154,0.));
#1181=CARTESIAN_POINT('',(-0.0079,0.0139,0.));
#1182=CARTESIAN_POINT('',(-0.0064,0.0139,0.));
#1183=CARTESIAN_POINT('',(-0.0064,8.67361737988404E-19,0.));
#1184=CARTESIAN_POINT('',(-0.0064,0.00505,0.));
#1185=CARTESIAN_POINT('',(-0.0032,0.00505,0.));
#1186=CARTESIAN_POINT('',(0.,0.00505,0.));
#1187=CARTESIAN_POINT('',(0.,-0.011125,0.));
#1188=CARTESIAN_POINT('',(0.,0.0162,0.));
#1189=CARTESIAN_POINT('',(-0.0124,0.0286,0.));
#1190=CARTESIAN_POINT('',(-0.001,0.0172,0.));
#1191=CARTESIAN_POINT('',(-0.041,0.0172,0.));
#1192=CARTESIAN_POINT('',(-0.081,0.0172,0.));
#1193=CARTESIAN_POINT('',(-0.0696,0.0286,0.));
#1194=CARTESIAN_POINT('',(-0.0036,-0.013,0.));
#1195=CARTESIAN_POINT('',(-0.0023,-0.013,0.));
#1196=CARTESIAN_POINT('',(-0.0036,0.013,0.));
#1197=CARTESIAN_POINT('',(-0.0023,0.013,0.));
#1198=CARTESIAN_POINT('',(-0.0064,8.67361737988404E-19,0.0015));
#1199=CARTESIAN_POINT('',(-0.0064,8.67361737988404E-19,0.0015));
#1200=CARTESIAN_POINT('',(-0.0064,0.0139,0.0015));
#1201=CARTESIAN_POINT('',(-0.0064,0.00505,0.0015));
#1202=CARTESIAN_POINT('',(-0.0064,0.00505,0.003));
#1203=CARTESIAN_POINT('',(-0.0064,0.0139,0.0015));
#1204=CARTESIAN_POINT('',(0.,-0.011125,-0.002));
#1205=CARTESIAN_POINT('',(0.,-0.0162,-0.002));
#1206=CARTESIAN_POINT('',(0.,-0.0162,-0.001));
#1207=CARTESIAN_POINT('',(0.,-0.011125,-0.001));
#1208=CARTESIAN_POINT('',(0.,0.0162,-0.001));
#1209=CARTESIAN_POINT('',(0.,0.0162,0.));
#1210=CARTESIAN_POINT('',(0.,0.00505,0.003));
#1211=CARTESIAN_POINT('',(0.,0.00505,0.003));
#1212=CARTESIAN_POINT('',(0.,0.,0.003));
#1213=CARTESIAN_POINT('',(-1.51788304147971E-18,-0.00505,0.003));
#1214=CARTESIAN_POINT('',(-1.51788304147971E-18,-0.00505,0.003));
#1215=CARTESIAN_POINT('',(-0.041,0.0172,-0.002));
#1216=CARTESIAN_POINT('',(-0.082,0.0172,-0.001));
#1217=CARTESIAN_POINT('',(-0.001,0.0172,-0.001));
#1218=CARTESIAN_POINT('',(-0.081,0.0172,-0.001));
#1219=CARTESIAN_POINT('',(-0.081,0.0172,-0.002));
#1220=CARTESIAN_POINT('',(-0.001,0.0172,-0.002));
#1221=CARTESIAN_POINT('',(-0.082,0.,-0.002));
#1222=CARTESIAN_POINT('',(-0.082,-0.0172,-0.001));
#1223=CARTESIAN_POINT('',(-0.082,0.0162,-0.001));
#1224=CARTESIAN_POINT('',(-0.082,-0.0162,-0.001));
#1225=CARTESIAN_POINT('',(-0.082,-0.0162,0.));
#1226=CARTESIAN_POINT('',(-0.082,0.0162,-0.002));
#1227=CARTESIAN_POINT('',(-0.0036,-0.013,-0.002));
#1228=CARTESIAN_POINT('',(-0.0036,-0.013,-0.002));
#1229=CARTESIAN_POINT('',(-0.0023,-0.013,-0.002));
#1230=CARTESIAN_POINT('',(-0.0036,0.013,-0.002));
#1231=CARTESIAN_POINT('',(-0.0036,0.013,-0.002));
#1232=CARTESIAN_POINT('',(-0.0023,0.013,-0.002));
#1233=CARTESIAN_POINT('',(-0.041,-0.0172,-0.002));
#1234=CARTESIAN_POINT('',(-0.081,-0.0172,-0.002));
#1235=CARTESIAN_POINT('',(-0.081,-0.0172,-0.001));
#1236=CARTESIAN_POINT('',(-0.041,-0.0172,-0.001));
#1237=CARTESIAN_POINT('',(-0.001,-0.0172,-0.001));
#1238=CARTESIAN_POINT('',(-0.001,-0.0172,-0.002));
#1239=CARTESIAN_POINT('',(-0.041,0.,-0.002));
#1240=CARTESIAN_POINT('',(-0.001,0.,-0.002));
#1241=CARTESIAN_POINT('',(-0.001,0.0162,-0.002));
#1242=CARTESIAN_POINT('',(-0.001,-0.0162,-0.002));
#1243=CARTESIAN_POINT('',(-0.041,-0.0162,-0.002));
#1244=CARTESIAN_POINT('',(-0.081,-0.0162,-0.002));
#1245=CARTESIAN_POINT('',(-0.081,0.0172,-0.002));
#1246=CARTESIAN_POINT('',(-0.081,0.0162,-0.002));
#1247=CARTESIAN_POINT('',(-2.53861972094167E-19,0.0162,-0.002));
#1248=CARTESIAN_POINT('',(-0.0064,8.67361737988404E-19,0.0015));
#1249=CARTESIAN_POINT('',(-0.0064,-0.00505,0.003));
#1250=CARTESIAN_POINT('',(-0.0064,-0.00505,0.0015));
#1251=CARTESIAN_POINT('',(-0.0064,8.67361737988404E-19,0.0015));
#1252=CARTESIAN_POINT('',(-0.0064,-0.0139,0.0015));
#1253=CARTESIAN_POINT('',(-0.0064,-0.0139,0.0015));
#1254=CARTESIAN_POINT('',(-0.0079,0.0139,0.0015));
#1255=CARTESIAN_POINT('',(-0.0079,0.0154,0.0015));
#1256=CARTESIAN_POINT('',(-0.0079,0.0154,0.0015));
#1257=CARTESIAN_POINT('',(-0.0079,0.0139,0.0015));
#1258=CARTESIAN_POINT('',(-0.0428,0.0154,0.0015));
#1259=CARTESIAN_POINT('',(-0.06085,0.0154,-0.01655));
#1260=CARTESIAN_POINT('',(-0.0777,0.0154,0.000299999999999979));
#1261=CARTESIAN_POINT('',(-0.0777,0.0154,0.0015));
#1262=CARTESIAN_POINT('',(-0.0777,0.0154,0.0015));
#1263=CARTESIAN_POINT('',(-0.0428,0.0154,0.0015));
#1264=CARTESIAN_POINT('',(-0.0777,0.0139,0.0015));
#1265=CARTESIAN_POINT('',(-0.0777,0.0139,0.000299999999999979));
#1266=CARTESIAN_POINT('',(-0.0789,0.0148,0.0015));
#1267=CARTESIAN_POINT('',(-0.0777,0.0139,0.0015));
#1268=CARTESIAN_POINT('',(-0.0777,0.004,0.0015));
#1269=CARTESIAN_POINT('',(-0.0777,0.004,0.0015));
#1270=CARTESIAN_POINT('',(-0.0789,0.004,0.0015));
#1271=CARTESIAN_POINT('',(-0.0762,0.004,0.0015));
#1272=CARTESIAN_POINT('',(-0.0783,0.004,0.0009));
#1273=CARTESIAN_POINT('',(-0.0762,0.004,0.0015));
#1274=CARTESIAN_POINT('',(-0.0762,0.,0.0015));
#1275=CARTESIAN_POINT('',(-0.0762,-0.004,0.0015));
#1276=CARTESIAN_POINT('',(-0.0762,-0.004,0.0015));
#1277=CARTESIAN_POINT('',(-0.0762,0.,0.0015));
#1278=CARTESIAN_POINT('',(-0.0777,-0.004,0.0015));
#1279=CARTESIAN_POINT('',(-0.0783,-0.004,0.0009));
#1280=CARTESIAN_POINT('',(-0.0789,-0.004,0.0015));
#1281=CARTESIAN_POINT('',(-0.0777,-0.004,0.0015));
#1282=CARTESIAN_POINT('',(-0.0777,-0.0139,0.0015));
#1283=CARTESIAN_POINT('',(-0.0777,-0.0139,0.0015));
#1284=CARTESIAN_POINT('',(-0.0789,-0.0148,0.0015));
#1285=CARTESIAN_POINT('',(-0.0777,-0.0154,0.0015));
#1286=CARTESIAN_POINT('',(-0.0777,-0.0139,0.000299999999999979));
#1287=CARTESIAN_POINT('',(-0.0777,-0.0154,0.000299999999999979));
#1288=CARTESIAN_POINT('',(-0.0777,-0.0154,0.0015));
#1289=CARTESIAN_POINT('',(-0.0428,-0.0154,0.0015));
#1290=CARTESIAN_POINT('',(-0.06085,-0.0154,-0.01655));
#1291=CARTESIAN_POINT('',(-0.0079,-0.0154,0.0015));
#1292=CARTESIAN_POINT('',(-0.0079,-0.0154,0.0015));
#1293=CARTESIAN_POINT('',(-0.0428,-0.0154,0.0015));
#1294=CARTESIAN_POINT('',(-0.0079,-0.0139,0.0015));
#1295=CARTESIAN_POINT('',(-0.0079,-0.0139,0.0015));
#1296=CARTESIAN_POINT('',(-0.041,0.,0.0015));
#1297=CARTESIAN_POINT('',(-0.041,0.0105,0.0015));
#1298=CARTESIAN_POINT('',(-0.044,0.0105,0.0015));
#1299=CARTESIAN_POINT('',(-0.028,0.0105,0.0015));
#1300=CARTESIAN_POINT('',(-0.028,-5.30621298534082E-18,0.0015));
#1301=CARTESIAN_POINT('',(-0.028,-0.0105,0.0015));
#1302=CARTESIAN_POINT('',(-0.042,-0.0105,0.0015));
#1303=CARTESIAN_POINT('',(-0.044,-0.0105,0.0015));
#1304=CARTESIAN_POINT('',(-0.044,0.0085,0.0015));
#1305=CARTESIAN_POINT('',(-0.0789,0.,0.0015));
#1306=CARTESIAN_POINT('',(-0.0064,8.67361737988404E-19,0.0015));
#1307=CARTESIAN_POINT('',(-0.0789,0.,0.0015));
#1308=CARTESIAN_POINT('',(-0.0064,8.67361737988404E-19,0.003));
#1309=CARTESIAN_POINT('',(-0.0064,0.00505,0.003));
#1310=CARTESIAN_POINT('',(-0.0064,0.00505,0.003));
#1311=CARTESIAN_POINT('',(-0.0064,-0.00505,0.003));
#1312=CARTESIAN_POINT('',(-0.0064,-0.00505,0.003));
#1313=CARTESIAN_POINT('',(-0.0064,8.67361737988404E-19,0.003));
#1314=CARTESIAN_POINT('',(-0.0032,0.00505,0.003));
#1315=CARTESIAN_POINT('',(-0.0032,0.00505,0.003));
#1316=CARTESIAN_POINT('',(-0.0032,-0.00505,0.003));
#1317=CARTESIAN_POINT('',(-0.0032,-0.00505,0.003));
#1318=CARTESIAN_POINT('',(-0.041,0.,0.003));
#1319=CARTESIAN_POINT('',(-0.0783,0.168360230175073,0.0009));
#1320=CARTESIAN_POINT('',(-0.0783,0.168360230175073,0.0009));
#1321=CARTESIAN_POINT('',(0.,0.0162,-0.002));
#1322=CARTESIAN_POINT('',(0.,0.0162,-0.001));
#1323=CARTESIAN_POINT('',(-0.001,-0.0172,-0.002));
#1324=CARTESIAN_POINT('',(-0.0005,-0.0167,-0.001));
#1325=CARTESIAN_POINT('',(-0.001,0.,-0.002));
#1326=CARTESIAN_POINT('',(0.,0.0162,-0.001));
#1327=CARTESIAN_POINT('',(-0.001,-0.0162,-0.002));
#1328=CARTESIAN_POINT('',(0.,0.0162,-0.001));
#1329=CARTESIAN_POINT('',(-0.001,0.0167,-0.0015));
#1330=CARTESIAN_POINT('',(-0.001,-0.0162,-0.002));
#1331=CARTESIAN_POINT('',(-0.001,-0.0162,-0.002));
#1332=CARTESIAN_POINT('',(-0.041,0.0172,-0.001));
#1333=CARTESIAN_POINT('',(-0.081,0.0162,-0.002));
#1334=CARTESIAN_POINT('',(-0.081,0.0172,-0.002));
#1335=CARTESIAN_POINT('',(-0.0815,0.0167,-0.001));
#1336=CARTESIAN_POINT('',(-0.082,-0.0162,-0.002));
#1337=CARTESIAN_POINT('',(-0.082,-0.0162,-0.001));
#1338=CARTESIAN_POINT('',(-0.041,-0.0162,-0.002));
#1339=CARTESIAN_POINT('',(-0.081,-0.0167,-0.0015));
#1340=CARTESIAN_POINT('',(-0.081,0.0162,-0.002));
#1341=CARTESIAN_POINT('',(-0.081,0.0162,-0.002));
#1342=CARTESIAN_POINT('',(-0.082,-0.0162,-0.001));
#1343=CARTESIAN_POINT('',(-0.082,-0.0162,-0.001));
#1344=CARTESIAN_POINT('',(-0.082,0.,-0.001));
#1345=CARTESIAN_POINT('',(-0.041,0.,-0.001));
#1346=CARTESIAN_POINT('',(-0.042,0.,-0.0005));
#1347=CARTESIAN_POINT('',(-0.0391666666666666,-0.00566666666666667,-0.00333333333333333));
#1348=CARTESIAN_POINT('',(-0.043,0.0095,0.0005));
#1349=CARTESIAN_POINT('',(-0.041,0.0105,0.0015));
#1350=CARTESIAN_POINT('',(-0.0315,0.007,-0.002));
#1351=CARTESIAN_POINT('',(-0.036,-0.0085,-0.0005));
#1352=CARTESIAN_POINT('',(-0.0315,-0.007,-0.002));
#1353=CARTESIAN_POINT('',(-0.028,-5.30621298534082E-18,0.0015));
#1354=MECHANICAL_DESIGN_GEOMETRIC_PRESENTATION_REPRESENTATION('',(#833),
#1355);
#1355=(
GEOMETRIC_REPRESENTATION_CONTEXT(3)
GLOBAL_UNCERTAINTY_ASSIGNED_CONTEXT((#1356))
GLOBAL_UNIT_ASSIGNED_CONTEXT((#1359,#1358,#1357))
REPRESENTATION_CONTEXT('Lid','TOP_LEVEL_ASSEMBLY_PART')
);
#1356=UNCERTAINTY_MEASURE_WITH_UNIT(LENGTH_MEASURE(1.E-8),#1359,
'DISTANCE_ACCURACY_VALUE','Maximum Tolerance applied to model');
#1357=(
NAMED_UNIT(*)
SI_UNIT($,.STERADIAN.)
SOLID_ANGLE_UNIT()
);
#1358=(
NAMED_UNIT(*)
PLANE_ANGLE_UNIT()
SI_UNIT($,.RADIAN.)
);
#1359=(
LENGTH_UNIT()
NAMED_UNIT(*)
SI_UNIT($,.METRE.)
);
#1360=PRODUCT_DEFINITION_SHAPE('','',#1361);
#1361=PRODUCT_DEFINITION('','',#1363,#1362);
#1362=PRODUCT_DEFINITION_CONTEXT('',#1369,'design');
#1363=PRODUCT_DEFINITION_FORMATION_WITH_SPECIFIED_SOURCE('','',#1365,
 .NOT_KNOWN.);
#1364=PRODUCT_RELATED_PRODUCT_CATEGORY('','',(#1365));
#1365=PRODUCT('Lid','Lid','Lid',(#1367));
#1366=PRODUCT_CATEGORY('','');
#1367=PRODUCT_CONTEXT('',#1369,'mechanical');
#1368=APPLICATION_PROTOCOL_DEFINITION('international standard',
'ap242_managed_model_based_3d_engineering',2020,#1369);
#1369=APPLICATION_CONTEXT('managed model based 3d engineering');
ENDSEC;
END-ISO-10303-21;
